<svg width="192" height="49" viewBox="0 0 192 49" fill="none" xmlns="http://www.w3.org/2000/svg">
<path d="M1 15.1425C1.44606 17.8323 2.79776 21.8874 4.1427 24.361C4.83446 25.6333 6.37977 26.3886 7.73823 26.6251C9.09669 26.8617 10.4349 26.4156 11.7933 25.7398C13.1518 25.0639 14.49 24.1718 15.1793 22.3741C15.8687 20.5763 15.8687 17.8999 15.4226 15.8521C14.9766 13.8043 14.0845 12.4661 12.9558 11.5537C10.7657 9.78327 7.77202 9.28959 5.52144 9.28283C3.28429 9.27611 3.25734 13.7772 3.25058 16.0278C3.24386 18.265 9.08317 17.8459 14.0304 16.9537C22.6607 15.3974 25.3171 10.6413 28.0137 10.1885C29.3535 9.96351 30.7104 10.6278 30.9537 11.5267C32.7752 18.2561 19.9508 23.6852 17.4434 27.9701C14.1472 33.603 29.3587 27.3078 33.6368 26.6387C39.3871 25.7393 38.8476 17.4133 38.8476 15.8251C38.8476 9.30136 37.0498 27.2942 37.0431 29.5448C37.0364 31.782 44.2139 31.3629 49.4044 31.1398C53.9146 30.946 40.2128 27.7673 39.0774 25.9696C37.6465 23.704 46.0251 23.2527 50.087 22.8066C51.475 22.6542 43.8489 20.5493 39.0774 18.9813C36.6728 18.1911 46.0251 16.4942 51.2022 17.1632C53.3451 17.4402 54.1489 19.1705 54.3854 20.529C54.8494 23.1937 53.7163 27.2807 53.9393 30.6667C53.9997 31.5828 55.068 24.1988 56.4062 17.4403C56.9227 14.8318 60.4207 15.1425 62.4686 15.3655C64.5164 15.5885 65.8546 16.0346 65.8749 16.4874C66.1096 21.7292 55.0815 19.6436 53.7231 20.5425C52.3927 21.4228 59.0961 21.901 62.4821 22.347C63.3131 22.4565 61.8536 23.6852 60.4951 24.3678C59.1366 25.0504 57.7984 25.4965 56.8861 25.0572C55.9737 24.6179 55.5276 23.2797 55.2978 21.6982C55.068 20.1167 55.068 18.3325 56.4062 17.4133C63.1854 12.7569 70.8018 15.1425 77.7969 14.2436C79.3722 14.0411 80.7233 14.6829 80.9666 15.5818C82.4118 20.9208 75.8031 25.929 74.2216 31.7886C73.7476 33.5449 73.9918 35.8235 74.6609 35.6342C83.3532 33.1758 83.8998 23.2662 84.7987 21.9077C85.679 20.5773 86.1571 26.8347 86.8262 29.7679C87.042 30.714 88.8335 29.5786 89.7459 28.4499C93.302 24.0509 93.8077 19.2111 94.9364 18.2987C97.0084 16.6237 93.8213 24.5908 93.8145 26.1723C93.7932 31.1557 100.566 17.8729 105.061 13.8043C106.271 12.7086 107.757 12.0065 108.67 12.216C113.591 13.3461 109.596 23.2256 108.913 34.2487C108.757 36.7612 108.244 38.0943 107.791 38.1146C106.197 38.186 106.433 31.8495 105.094 26.4427C104.548 24.2355 101.08 24.6044 100.37 24.1583C95.2774 20.9571 115.867 21.0088 121.058 18.7583C122.387 18.1822 123.086 16.5212 123.099 16.5009C125.66 12.6595 119.95 26.8211 120.173 31.3358C120.469 37.3373 122.653 15.6291 124.221 9.75593C124.612 8.28998 125.789 7.05929 127.141 6.36992C128.492 5.68055 130.277 5.68055 131.196 6.7957C135.636 12.1831 128.519 19.1705 126.485 23.4689C126.348 23.7591 128.033 22.8201 129.614 23.0296C133.287 23.5161 136.157 26.8482 138.853 27.7538C140.141 28.1863 141.55 26.8752 142.239 24.6314C142.929 22.3876 142.929 18.8191 142.036 17.4268C141.144 16.0346 139.36 16.9267 137.995 18.0554C136.63 19.184 135.737 20.5222 135.501 21.8807C135.264 23.2391 135.71 24.5773 136.609 25.4897C138.446 27.3541 143.348 27.3078 148.525 26.6387C150.668 26.3617 151.471 24.6314 151.708 23.2729C152.172 20.6083 149.254 17.4133 145.436 14.7099C143.614 13.42 141.171 13.7908 140.691 14.2368C140.212 14.6829 141.55 15.575 143.577 16.0346C145.605 16.4942 148.281 16.4942 150.329 15.8251C152.377 15.156 153.715 13.8178 154.628 12.4593C156.311 9.95274 156.446 6.15365 155.776 2.32833C155.478 0.624539 153.769 -0.158795 153.08 4.51133C150.897 19.2966 153.283 31.3493 155.303 34.046C156.362 35.4593 157.77 36.7426 159.129 36.9859C161.859 37.4749 164.988 32.2955 167.692 26.6725C168.846 24.2713 168.611 22.3876 168.165 22.3605C167.719 22.3335 166.827 24.1177 167.036 25.2599C167.246 26.4021 168.584 26.8482 169.496 26.1858C170.409 25.5235 170.855 23.7393 170.415 21.4819C169.976 19.2246 168.638 16.5482 167.279 14.9465C165.921 13.3447 164.583 12.8986 163.67 13.3379C162.758 13.7772 162.312 15.1154 162.305 16.4739C162.277 22.0519 166.34 27.2807 170.172 32.2482C171.892 34.478 175.802 34.0663 178.728 33.3972C180.019 33.1021 180.317 31.3899 180.546 29.3623C180.776 27.3348 180.776 24.6584 179.438 23.2797C178.1 21.901 175.423 21.901 173.822 22.57C172.22 23.2391 171.774 24.5773 172.213 24.8206C173.868 25.7374 176.708 22.3605 178.958 21.6779C179.854 21.4062 180.317 23.2256 180.323 24.8071C180.352 31.4861 178.073 39.419 178.519 45.7449C179.157 54.7893 184.372 28.2539 186.399 21.9212C186.862 20.4762 187.967 19.2246 188.65 19.2043C189.332 19.184 189.778 20.5222 190.008 22.3267C190.238 24.1313 190.238 26.3616 187.535 27.3078" stroke="black" stroke-width="2" stroke-linecap="round"/>
</svg>
